<svg xmlns="http://www.w3.org/2000/svg" width="24" height="24" viewBox="0 0 24 24">
    <g>
        <path fill="none" d="M0 0h24v24H0z" transform="translate(-1777 -37) translate(1777 37)"/>
        <path fill="#707070" d="M8.75 20a2.5 2.5 0 0 0 2.5-2.5h-5a2.5 2.5 0 0 0 2.5 2.5zm8.414-5.848C16.409 13.341 15 12.121 15 8.125a6.169 6.169 0 0 0-5-6.061V1.25a1.249 1.249 0 1 0-2.5 0v.814a6.169 6.169 0 0 0-5 6.061c0 4-1.412 5.216-2.167 6.027A1.22 1.22 0 0 0 0 15a1.251 1.251 0 0 0 1.254 1.25h14.992A1.251 1.251 0 0 0 17.5 15a1.22 1.22 0 0 0-.336-.848z" transform="translate(-1777 -37) translate(1780 39.296)"/>
    </g>
</svg>
