<svg xmlns="http://www.w3.org/2000/svg" width="24" height="24" viewBox="0 0 24 24">
    <g>
        <path fill="none" d="M0 0H24V24H0z" transform="translate(-2155 -8250.252) translate(2155 8250.252)"/>
        <path fill="#707070" d="M15.207 66.614a.706.706 0 0 1-.5-.213l-4.349-5.963 8.176-10.231L8.38 58.322l-6.169-4.416a.693.693 0 0 1-.193-.659.6.6 0 0 1 .412-.436l18.057-5.561a.657.657 0 0 1 .194-.029.72.72 0 0 1 .572.3.678.678 0 0 1 .11.606L15.8 66.183a.608.608 0 0 1-.593.431z" transform="translate(-2155 -8250.252) translate(2155.249 8205.459)"/>
    </g>
</svg>
