<svg id="ic_date" xmlns="http://www.w3.org/2000/svg" width="20" height="20" viewBox="0 0 20 20">
  <path id="패스_427" data-name="패스 427" d="M0,0H20V20H0Z" fill="none"/>
  <path id="Icon_awesome-calendar-day" data-name="Icon awesome-calendar-day" d="M0,12.644a1.308,1.308,0,0,0,1.308,1.308H10.9a1.308,1.308,0,0,0,1.308-1.308V5.232H0ZM1.744,7.412a.437.437,0,0,1,.436-.436H4.8a.437.437,0,0,1,.436.436v2.616a.437.437,0,0,1-.436.436H2.18a.437.437,0,0,1-.436-.436ZM10.9,1.744H9.592V.436A.437.437,0,0,0,9.156,0H8.284a.437.437,0,0,0-.436.436V1.744H4.36V.436A.437.437,0,0,0,3.924,0H3.052a.437.437,0,0,0-.436.436V1.744H1.308A1.308,1.308,0,0,0,0,3.052V4.36H12.208V3.052A1.308,1.308,0,0,0,10.9,1.744Z" transform="translate(3.8 3.048)" fill="#a7a7aa"/>
</svg>
