<svg xmlns="http://www.w3.org/2000/svg" width="24" height="24" viewBox="0 0 24 24">
    <defs>
        <style>
            .cls-5{stroke:none}
        </style>
    </defs>
    <g id="ic_create-post" transform="translate(-.432 -.375)">
        <path id="bound" fill="none" d="M0 0H24V24H0z" transform="translate(.432 .375)"/>
        <g id="패스_408" fill="none">
            <path d="M2.966 0h9.886a2.966 2.966 0 0 1 2.966 2.966v8.9a2.966 2.966 0 0 1-2.966 2.966H2.966A2.966 2.966 0 0 1 0 11.864v-8.9A2.966 2.966 0 0 1 2.966 0z" class="cls-5" transform="translate(3.176 6.307)"/>
            <path fill="#555" d="M2.966 2C2.433 2 2 2.433 2 2.966v8.898c0 .532.433.966.966.966h9.886c.533 0 .966-.434.966-.966V2.966c0-.533-.433-.966-.966-.966H2.966m0-2h9.886c1.638 0 2.966 1.328 2.966 2.966v8.898c0 1.638-1.328 2.966-2.966 2.966H2.966C1.328 14.83 0 13.502 0 11.864V2.966C0 1.328 1.328 0 2.966 0z" transform="translate(3.176 6.307)"/>
        </g>
        <g id="그룹_542" fill="#555" transform="translate(9.51 3.341)">
            <g id="패스_406">
                <path d="M15.553 17.032h-1.146c-.466 0-.844-.378-.844-.844v-1.155c0-.226.087-.438.246-.597l8.805-8.805c.16-.16.372-.248.597-.248.226 0 .438.088.598.248l1.155 1.155c.33.33.33.866 0 1.195l-8.809 8.805c-.157.157-.376.246-.602.246z" class="cls-5" transform="translate(-14.063 -4.328)"/>
                <path fill="#f4f4f4" d="M23.211 5.883c-.088 0-.176.034-.244.102l-8.804 8.804c-.066.065-.1.153-.1.244v1.155c0 .192.156.344.344.344h1.146c.092 0 .183-.034.249-.1l8.808-8.804c.135-.135.135-.353 0-.488l-1.155-1.155c-.067-.068-.156-.102-.244-.102m0-1c.36 0 .697.14.951.395l1.155 1.155c.525.524.525 1.378 0 1.902L16.51 17.14c-.25.25-.598.392-.956.392h-1.146c-.741 0-1.344-.603-1.344-1.344v-1.155c0-.36.14-.697.393-.951l8.804-8.804c.254-.255.592-.395.951-.395z" transform="translate(-14.063 -4.328)"/>
            </g>
            <path id="패스_407" d="M32.1 4.2l-.628-.628-.009-.009a.771.771 0 0 0-.5-.192.755.755 0 0 0-.506.2l-.493.5a.176.176 0 0 0 0 .244l.453.453.946.946a.174.174 0 0 0 .248 0l.493-.493a.743.743 0 0 0 .192-.506.789.789 0 0 0-.196-.515z" transform="translate(-20.089 -3.375)"/>
        </g>
    </g>
</svg>
