<svg xmlns="http://www.w3.org/2000/svg" width="36" height="31.5" viewBox="0 0 36 31.5">
    <path fill="#737373" d="M36 10.125v20.25a3.376 3.376 0 0 1-3.375 3.375H3.375A3.376 3.376 0 0 1 0 30.375v-20.25A3.376 3.376 0 0 1 3.375 6.75h6.188l.865-2.313a3.37 3.37 0 0 1 3.156-2.187h8.824a3.37 3.37 0 0 1 3.157 2.187l.872 2.313h6.188A3.376 3.376 0 0 1 36 10.125zM26.438 20.25A8.438 8.438 0 1 0 18 28.688a8.444 8.444 0 0 0 8.438-8.438zm-2.25 0A6.188 6.188 0 1 1 18 14.063a6.2 6.2 0 0 1 6.188 6.187z" transform="translate(0 -2.25)"/>
</svg>
