<svg xmlns="http://www.w3.org/2000/svg" width="20" height="20" viewBox="0 0 20 20">
    <g fill="none">
        <path d="M0 0H20V20H0z" transform="translate(-1068 -7537.681) translate(1068 7537.681)"/>
        <path stroke="#737373" stroke-width="1.5px" d="M1.968 0h11.808a1.97 1.97 0 0 1 1.968 1.968v8.856a1.97 1.97 0 0 1-1.968 1.968h-2.952v2.583a.37.37 0 0 1-.587.3L6.4 12.792H1.968A1.97 1.97 0 0 1 0 10.824V1.968A1.97 1.97 0 0 1 1.968 0z" transform="translate(-1068 -7537.681) translate(1069.968 7539.826)"/>
    </g>
</svg>
