<svg xmlns="http://www.w3.org/2000/svg" id="ic_pause_sm" width="40" height="40" viewBox="0 0 40 40">
    <defs>
        <style>
            .cls-2{fill:#fff}
        </style>
    </defs>
    <g id="bg" fill="rgba(43,43,43,0.5)" stroke="#fff" stroke-width="1.6px">
        <circle cx="20" cy="20" r="20" stroke="none"/>
        <circle cx="20" cy="20" r="19.2" fill="none"/>
    </g>
    <path id="패스_516" d="M1.5 0A1.5 1.5 0 0 1 3 1.5v12a1.5 1.5 0 0 1-3 0v-12A1.5 1.5 0 0 1 1.5 0z" class="cls-2" transform="translate(15 13)"/>
    <path id="패스_515" d="M1.5 0A1.5 1.5 0 0 1 3 1.5v12a1.5 1.5 0 0 1-3 0v-12A1.5 1.5 0 0 1 1.5 0z" class="cls-2" transform="translate(22 13)"/>
</svg>
