<svg xmlns="http://www.w3.org/2000/svg" xmlns:xlink="http://www.w3.org/1999/xlink" width="137" height="36" viewBox="0 0 137 36">
  <defs>
    <linearGradient id="linear-gradient" x1="0.5" x2="0.5" y2="1" gradientUnits="objectBoundingBox">
      <stop offset="0" stop-color="#17e074"/>
      <stop offset="1" stop-color="#5878ff"/>
    </linearGradient>
    <clipPath id="clip-path">
      <rect id="사각형_390" data-name="사각형 390" width="36" height="36" rx="18" fill="url(#linear-gradient)"/>
    </clipPath>
  </defs>
  <g id="logo" transform="translate(2041 11272)">
    <rect id="사각형_319" data-name="사각형 319" width="36" height="36" rx="18" transform="translate(-2041 -11272)" fill="#785ffa"/>
    <g id="마스크_그룹_19" data-name="마스크 그룹 19" transform="translate(-2041 -11272)" clip-path="url(#clip-path)">
      <path id="패스_505" data-name="패스 505" d="M7,15.939a3.793,3.793,0,0,1-.787-.83,4.809,4.809,0,0,1-.59-1.162L3.585,8.185h0L2.666,5.561a3.889,3.889,0,0,0-.477-.94,3.069,3.069,0,0,0-.637-.672,2.516,2.516,0,0,0-1.54-.537H0l.267-.756a4.8,4.8,0,0,1,.59-1.162,3.787,3.787,0,0,1,.787-.83,3.062,3.062,0,0,1,3.808,0,3.8,3.8,0,0,1,.787.83,4.8,4.8,0,0,1,.59,1.162L8.868,8.419h0l.919,2.624a3.9,3.9,0,0,0,.477.94,3.071,3.071,0,0,0,.637.672,2.516,2.516,0,0,0,1.54.537h.011l-.267.756a4.8,4.8,0,0,1-.59,1.162,3.782,3.782,0,0,1-.787.83,3.061,3.061,0,0,1-3.808,0Z" transform="translate(11.705 9.962)" fill="#d0d0cf"/>
      <path id="패스_523" data-name="패스 523" d="M7,15.939a3.793,3.793,0,0,1-.787-.83,4.809,4.809,0,0,1-.59-1.162L3.585,8.185h0L2.666,5.561a3.889,3.889,0,0,0-.477-.94,3.069,3.069,0,0,0-.637-.672,2.516,2.516,0,0,0-1.54-.537H0l.267-.756a4.8,4.8,0,0,1,.59-1.162,3.787,3.787,0,0,1,.787-.83,3.062,3.062,0,0,1,3.808,0,3.8,3.8,0,0,1,.787.83,4.8,4.8,0,0,1,.59,1.162L8.868,8.419h0l.919,2.624a3.9,3.9,0,0,0,.477.94,3.071,3.071,0,0,0,.637.672,2.516,2.516,0,0,0,1.54.537h.011l-.267.756a4.8,4.8,0,0,1-.59,1.162,3.782,3.782,0,0,1-.787.83,3.061,3.061,0,0,1-3.808,0Z" transform="translate(-0.747 9.962)" fill="#d0d0cf"/>
      <path id="패스_522" data-name="패스 522" d="M7,15.939a3.793,3.793,0,0,1-.787-.83,4.809,4.809,0,0,1-.59-1.162L3.585,8.185h0L2.666,5.561a3.889,3.889,0,0,0-.477-.94,3.069,3.069,0,0,0-.637-.672,2.516,2.516,0,0,0-1.54-.537H0l.267-.756a4.8,4.8,0,0,1,.59-1.162,3.787,3.787,0,0,1,.787-.83,3.062,3.062,0,0,1,3.808,0,3.8,3.8,0,0,1,.787.83,4.8,4.8,0,0,1,.59,1.162L8.868,8.419h0l.919,2.624a3.9,3.9,0,0,0,.477.94,3.071,3.071,0,0,0,.637.672,2.516,2.516,0,0,0,1.54.537h.011l-.267.756a4.8,4.8,0,0,1-.59,1.162,3.782,3.782,0,0,1-.787.83,3.061,3.061,0,0,1-3.808,0Z" transform="translate(24.158 9.962)" fill="#d0d0cf"/>
    </g>
    <text id="WEMUZ" transform="translate(-1993 -11245)" fill="#785ffa" font-size="24" font-family="Quicksand-Bold, Quicksand" font-weight="700"><tspan x="0" y="0">WEMUZ</tspan></text>
  </g>
</svg>
