<svg xmlns="http://www.w3.org/2000/svg" width="124" height="37.001" viewBox="0 0 124 37.001">
  <g id="logo_nav-title" transform="translate(-40 -32)">
    <text id="WeMuz" transform="translate(126 59)" fill="#785ffa" font-size="23" font-family="Quicksand" font-weight="700" letter-spacing="-0.04em"><tspan x="-37.237" y="0">WeMuz</tspan></text>
    <g id="logo_wemuz" transform="translate(40 31.902)">
      <path id="패스_553" data-name="패스 553" d="M4143.5-5730.9a18.4,18.4,0,0,1-7.2-1.454,18.421,18.421,0,0,1-5.88-3.965,18.43,18.43,0,0,1-3.965-5.88,18.394,18.394,0,0,1-1.454-7.2,18.561,18.561,0,0,1,.552-4.5,2.985,2.985,0,0,1,.561.6,3.669,3.669,0,0,1,.462.9l.887,2.512,1.969,5.517a4.621,4.621,0,0,0,.569,1.111,3.646,3.646,0,0,0,.761.795,3.02,3.02,0,0,0,1.838.635,3.018,3.018,0,0,0,1.838-.635,3.59,3.59,0,0,0,.76-.795,4.568,4.568,0,0,0,.57-1.111l.257-.724h-.01a2.444,2.444,0,0,1-1.488-.515,2.943,2.943,0,0,1-.615-.643,3.729,3.729,0,0,1-.46-.9l-.887-2.512-1.969-5.517a4.605,4.605,0,0,0-.57-1.113,3.67,3.67,0,0,0-.76-.794,3.018,3.018,0,0,0-1.838-.636,2.972,2.972,0,0,0-.471.039,18.565,18.565,0,0,1,6.7-7.377,18.45,18.45,0,0,1,9.846-2.835,18.394,18.394,0,0,1,7.2,1.454,18.43,18.43,0,0,1,5.88,3.965,18.421,18.421,0,0,1,3.965,5.88,18.4,18.4,0,0,1,1.454,7.2,18.573,18.573,0,0,1-.49,4.247,2.489,2.489,0,0,1-.982-.461,2.876,2.876,0,0,1-.615-.643,3.679,3.679,0,0,1-.462-.9l-.887-2.512-1.969-5.517a4.626,4.626,0,0,0-.569-1.113,3.656,3.656,0,0,0-.761-.794,3.018,3.018,0,0,0-1.838-.636,3.016,3.016,0,0,0-1.838.636,3.617,3.617,0,0,0-.76.794,4.592,4.592,0,0,0-.57,1.113l-.258.724h.01a2.451,2.451,0,0,1,1.488.514,2.971,2.971,0,0,1,.615.643,3.737,3.737,0,0,1,.46.9l.887,2.512,1.969,5.517a4.57,4.57,0,0,0,.57,1.111,3.6,3.6,0,0,0,.76.795,3.02,3.02,0,0,0,1.838.635,3.022,3.022,0,0,0,1.84-.635,3.329,3.329,0,0,0,.335-.292,18.476,18.476,0,0,1-6.683,8.532A18.384,18.384,0,0,1,4143.5-5730.9Zm-3.074-26.828a3.016,3.016,0,0,0-1.838.636,3.647,3.647,0,0,0-.76.794,4.657,4.657,0,0,0-.57,1.113l-.257.724h.01a2.444,2.444,0,0,1,1.488.514,2.971,2.971,0,0,1,.615.643,3.655,3.655,0,0,1,.46.9l.889,2.512,1.969,5.517a4.565,4.565,0,0,0,.569,1.111,3.646,3.646,0,0,0,.761.795,3.02,3.02,0,0,0,1.838.635,3.02,3.02,0,0,0,1.838-.635,3.608,3.608,0,0,0,.76-.795,4.606,4.606,0,0,0,.57-1.111l.257-.724h-.01a2.438,2.438,0,0,1-1.488-.515,2.943,2.943,0,0,1-.615-.643,3.728,3.728,0,0,1-.46-.9l-.889-2.512-1.969-5.517a4.569,4.569,0,0,0-.569-1.113,3.656,3.656,0,0,0-.761-.794A3.018,3.018,0,0,0,4140.426-5757.729Z" transform="translate(-4125 5768)" fill="#785ffa"/>
    </g>
  </g>
</svg>
