<svg id="ic_matching" xmlns="http://www.w3.org/2000/svg" width="26" height="26" viewBox="0 0 26 26">
  <path id="패스_502" data-name="패스 502" d="M0,0H26V26H0Z" fill="none"/>
  <path id="패스_509" data-name="패스 509" d="M2.313,0A2.313,2.313,0,1,1,0,2.313,2.313,2.313,0,0,1,2.313,0Z" transform="translate(10.595 2.684)" fill="none" stroke="#292929" stroke-linecap="round" stroke-width="1.8"/>
  <path id="패스_508" data-name="패스 508" d="M2.313,0A2.313,2.313,0,1,1,0,2.313,2.313,2.313,0,0,1,2.313,0Z" transform="translate(2.5 18.874)" fill="none" stroke="#292929" stroke-linecap="round" stroke-width="1.8"/>
  <path id="패스_507" data-name="패스 507" d="M2.313,0A2.313,2.313,0,1,1,0,2.313,2.313,2.313,0,0,1,2.313,0Z" transform="translate(18.691 18.874)" fill="none" stroke="#292929" stroke-linecap="round" stroke-width="1.8"/>
  <path id="패스_506" data-name="패스 506" d="M3.469,0A3.469,3.469,0,1,1,0,3.469,3.469,3.469,0,0,1,3.469,0Z" transform="translate(9.439 11.936)" fill="none" stroke="#292929" stroke-linecap="round" stroke-width="1.8"/>
  <path id="패스_505" data-name="패스 505" d="M0,0V4.626" transform="translate(12.908 7.31)" fill="none" stroke="#292929" stroke-linecap="round" stroke-width="1.8"/>
  <path id="패스_504" data-name="패스 504" d="M0,2.313,3.238,0" transform="translate(6.779 17.486)" fill="none" stroke="#292929" stroke-linecap="round" stroke-width="1.8"/>
  <path id="패스_503" data-name="패스 503" d="M3.238,2.313,0,0" transform="translate(15.799 17.486)" fill="none" stroke="#292929" stroke-linecap="round" stroke-width="1.8"/>
</svg>
