<svg xmlns="http://www.w3.org/2000/svg" width="142" height="37" viewBox="0 0 142 37">
  <g id="logo_nav-title" transform="translate(-40 -32)">
    <text id="WEMUZ" transform="translate(132 60)" fill="#ff9600" font-size="28" font-family="Quicksand" font-weight="700" letter-spacing="-0.04em"><tspan x="-49.378" y="0">WEMUZ</tspan></text>
    <g id="logo_wemuz" transform="translate(40 31.902)">
      <circle id="타원_140" data-name="타원 140" cx="18.5" cy="18.5" r="18.5" transform="translate(0 0.098)" fill="#ff9600"/>
      <path id="패스_489" data-name="패스 489" d="M6.21,14.015a3.348,3.348,0,0,1-.7-.73,4.215,4.215,0,0,1-.523-1.022L3.18,7.2h0L2.364,4.89a3.408,3.408,0,0,0-.423-.827,2.709,2.709,0,0,0-.565-.591A2.244,2.244,0,0,0,.01,3H0l.237-.665A4.2,4.2,0,0,1,.76,1.314a3.342,3.342,0,0,1,.7-.73,2.735,2.735,0,0,1,3.378,0,3.35,3.35,0,0,1,.7.73,4.21,4.21,0,0,1,.523,1.022L7.866,7.4h0l.815,2.307a3.42,3.42,0,0,0,.423.827,2.71,2.71,0,0,0,.565.591,2.244,2.244,0,0,0,1.366.472h.01l-.237.665a4.2,4.2,0,0,1-.523,1.022,3.338,3.338,0,0,1-.7.73,2.734,2.734,0,0,1-3.378,0Z" transform="translate(12.983 11.272)" fill="#fff"/>
      <path id="패스_490" data-name="패스 490" d="M6.21,14.015a3.348,3.348,0,0,1-.7-.73,4.215,4.215,0,0,1-.523-1.022L3.18,7.2h0L2.364,4.89a3.408,3.408,0,0,0-.423-.827,2.709,2.709,0,0,0-.565-.591A2.244,2.244,0,0,0,.01,3H0l.237-.665A4.2,4.2,0,0,1,.76,1.314a3.342,3.342,0,0,1,.7-.73,2.735,2.735,0,0,1,3.378,0,3.35,3.35,0,0,1,.7.73,4.21,4.21,0,0,1,.523,1.022L7.866,7.4h0l.815,2.307a3.42,3.42,0,0,0,.423.827,2.71,2.71,0,0,0,.565.591,2.244,2.244,0,0,0,1.366.472h.01l-.237.665a4.2,4.2,0,0,1-.523,1.022,3.338,3.338,0,0,1-.7.73,2.734,2.734,0,0,1-3.378,0Z" transform="translate(23.042 11.272)" fill="#fff"/>
      <path id="패스_491" data-name="패스 491" d="M6.21,14.015a3.348,3.348,0,0,1-.7-.73,4.215,4.215,0,0,1-.523-1.022L3.18,7.2h0L2.364,4.89a3.408,3.408,0,0,0-.423-.827,2.709,2.709,0,0,0-.565-.591A2.244,2.244,0,0,0,.01,3H0l.237-.665A4.2,4.2,0,0,1,.76,1.314a3.342,3.342,0,0,1,.7-.73,2.735,2.735,0,0,1,3.378,0,3.35,3.35,0,0,1,.7.73,4.21,4.21,0,0,1,.523,1.022L7.866,7.4h0l.815,2.307a3.42,3.42,0,0,0,.423.827,2.71,2.71,0,0,0,.565.591,2.244,2.244,0,0,0,1.366.472h.01l-.237.665a4.2,4.2,0,0,1-.523,1.022,3.338,3.338,0,0,1-.7.73,2.734,2.734,0,0,1-3.378,0Z" transform="translate(2.923 11.272)" fill="#fff"/>
    </g>
  </g>
</svg>
