<svg id="ic_more" xmlns="http://www.w3.org/2000/svg" width="12" height="18" viewBox="0 0 12 18">
  <rect id="bound" width="12" height="18" fill="none"/>
  <path id="ic_more-2" data-name="ic_more" d="M4168.835-6907.592a.73.73,0,0,1,0-1.033l6.753-6.753-6.753-6.753a.729.729,0,0,1,0-1.033.731.731,0,0,1,1.033,0l7.232,7.232a.73.73,0,0,1,.213.552.728.728,0,0,1-.213.555l-7.232,7.233a.728.728,0,0,1-.518.214A.724.724,0,0,1,4168.835-6907.592Z" transform="translate(-4166.621 6924.379)" fill="#ff9600"/>
</svg>
