<svg id="btn_move-back" xmlns="http://www.w3.org/2000/svg" width="36" height="36" viewBox="0 0 36 36">
  <circle id="bg_btn_move-back" cx="18" cy="18" r="18" fill="#fff"/>
  <g id="ic_move-back" transform="translate(-443 -593)">
    <rect id="bound" width="16" height="24" transform="translate(453 599)" fill="none"/>
    <path id="ic_move-back-2" data-name="ic_move-back" d="M4177.1-6907.592a.73.73,0,0,0,0-1.033l-6.752-6.753,6.752-6.753a.729.729,0,0,0,0-1.033.731.731,0,0,0-1.032,0l-7.232,7.232a.729.729,0,0,0-.213.552.726.726,0,0,0,.212.555l7.232,7.233a.726.726,0,0,0,.517.214A.722.722,0,0,0,4177.1-6907.592Z" transform="translate(-3712.621 7526.379)" fill="#a7a7aa"/>
  </g>
</svg>
